<svg xmlns="http://www.w3.org/2000/svg" width="130.734" height="50.993" viewBox="0 0 130.734 50.993">
  <g id="Group_10" data-name="Group 10" transform="translate(-171.965 -572.941)">
    <path id="Path_15" data-name="Path 15" class="cls-1" d="M385.515,609.189a12.218,12.218,0,0,0-16.244,15.422,11.48,11.48,0,0,0,6.97,7.112,12.26,12.26,0,0,0,12.7-2.456.738.738,0,0,0,.008-1.069l-3.445-3.335a.73.73,0,0,0-.99-.013,5.865,5.865,0,0,1-8.588-.991.2.2,0,0,1,.156-.317h14.473a2.259,2.259,0,0,0,2.259-2.26v-1.242C392.817,615.7,389.555,610.762,385.515,609.189Zm-9.711,8.457a.2.2,0,0,1-.171-.294,5.891,5.891,0,0,1,10.107,0,.2.2,0,0,1-.171.294Z" transform="translate(-90.118 -16.188)"/>
    <g id="Group_9" data-name="Group 9" transform="translate(171.965 572.941)">
      <path id="Path_16" data-name="Path 16" class="cls-1" d="M205.106,572.941H173.418a1.453,1.453,0,0,0-1.453,1.453V585.41a1.453,1.453,0,0,0,1.453,1.453h8.239a.644.644,0,0,1,.644.644v27.816a1.382,1.382,0,0,0,1.382,1.382h.021a1.382,1.382,0,0,0,1.382-1.382V612.9a1.393,1.393,0,1,1,2.785-.036v5.89a1.382,1.382,0,0,0,1.382,1.382h.021a1.382,1.382,0,0,0,1.382-1.382V605.62a1.392,1.392,0,1,1,2.784-.036v7.768a1.392,1.392,0,1,0,2.784.036V587.507a.644.644,0,0,1,.644-.644h8.239a1.453,1.453,0,0,0,1.453-1.453V574.394A1.453,1.453,0,0,0,205.106,572.941Z" transform="translate(-171.965 -572.941)"/>
      <rect id="Rectangle_12" data-name="Rectangle 12" class="cls-1" width="2.784" height="3.55" rx="1.392" transform="translate(10.336 44.78)"/>
      <rect id="Rectangle_13" data-name="Rectangle 13" class="cls-1" width="2.784" height="2.784" rx="1.392" transform="translate(15.905 48.209)"/>
      <path id="Path_17" data-name="Path 17" class="cls-1" d="M213.226,652.084a1.393,1.393,0,1,0,1.155,1.155A1.394,1.394,0,0,0,213.226,652.084Z" transform="translate(-190.14 -609.212)"/>
      <path id="Path_18" data-name="Path 18" class="cls-1" d="M212.567,659.15a1.407,1.407,0,0,0-.953,1.361v.942a1.392,1.392,0,1,0,2.784.036v-1.014A1.4,1.4,0,0,0,212.567,659.15Z" transform="translate(-190.14 -612.429)"/>
    </g>
    <path id="Path_19" data-name="Path 19" class="cls-1" d="M295.493,608.332v.765a.194.194,0,0,1-.285.172,12.424,12.424,0,0,0-10-.5,11.381,11.381,0,0,0-6.777,6.709A12.168,12.168,0,0,0,295.208,630.9a.2.2,0,0,1,.285.173v.407a.737.737,0,0,0,.737.736h5.2a.737.737,0,0,0,.737-.736V608.332a.737.737,0,0,0-.737-.737h-5.2A.737.737,0,0,0,295.493,608.332Zm-5.787,17.647a5.9,5.9,0,1,1,5.9-5.9A5.9,5.9,0,0,1,289.706,625.979Z" transform="translate(-48.412 -15.885)"/>
    <path id="Path_20" data-name="Path 20" class="cls-1" d="M245.415,609.189a12.218,12.218,0,0,0-16.244,15.422,11.478,11.478,0,0,0,6.97,7.112,12.26,12.26,0,0,0,12.7-2.456.738.738,0,0,0,.008-1.069l-3.445-3.335a.731.731,0,0,0-.991-.013,5.864,5.864,0,0,1-8.587-.991.2.2,0,0,1,.156-.317h14.473a2.259,2.259,0,0,0,2.259-2.26v-1.242C252.717,615.7,249.455,610.762,245.415,609.189Zm-9.711,8.457a.2.2,0,0,1-.172-.294,5.891,5.891,0,0,1,10.107,0,.2.2,0,0,1-.171.294Z" transform="translate(-25.896 -16.188)"/>
    <path id="Path_21" data-name="Path 21" class="cls-1" d="M346.065,618.33a7.8,7.8,0,0,0-4.9-1.729H338.5a1.351,1.351,0,0,1-1.354-1.068,1.3,1.3,0,0,1,1.28-1.533h8.046a.729.729,0,0,0,.73-.729V608.2a.73.73,0,0,0-.73-.73h-8.39a7.317,7.317,0,0,0-6.69,4.252,7.95,7.95,0,0,0,2.118,9.672,7.8,7.8,0,0,0,4.9,1.729h2.666a1.352,1.352,0,0,1,1.354,1.068,1.3,1.3,0,0,1-1.28,1.533h-9.7a.73.73,0,0,0-.73.73v5.072a.73.73,0,0,0,.73.73h10.049a7.318,7.318,0,0,0,6.69-4.252A7.951,7.951,0,0,0,346.065,618.33Z" transform="translate(-72.714 -15.827)"/>
  </g>
</svg>
