<svg xmlns="http://www.w3.org/2000/svg" width="70.341" height="75.366" viewBox="0 0 70.341 75.366">
  <g id="Group_358" data-name="Group 358" transform="translate(-337.442 -192.903)">
    <g id="Group_352" data-name="Group 352">
      <g id="Group_350" data-name="Group 350">
        <path id="Path_213" data-name="Path 213" d="M368.04,207.213A15.238,15.238,0,0,0,352.8,222.451c0,1.583.116,13.641,1.037,19.5.766,4.878,10.837,11.6,14.2,11.6Z" fill="none" stroke="#fff" stroke-linecap="round" stroke-linejoin="round" stroke-width="2.409"/>
        <path id="Path_214" data-name="Path 214" d="M367.665,223.675h-5.188c-2.913,0-3.862-1.135-5.3-4.573-1.163-2.776-1.9-4.977-1.9-4.977" fill="none" stroke="#fff" stroke-linecap="round" stroke-linejoin="round" stroke-width="2.409"/>
        <path id="Path_215" data-name="Path 215" d="M361.193,233.734a3.871,3.871,0,0,1-3.939-2.816,9.63,9.63,0,0,0,1.8.275h1.228c1.357,0,2.18.471,2.18,1.27v1.271Z" fill="none" stroke="#fff" stroke-linecap="round" stroke-linejoin="round" stroke-width="2.409"/>
        <line id="Line_171" data-name="Line 171" x1="4.675" transform="translate(363.299 246.186)" fill="none" stroke="#fff" stroke-linecap="round" stroke-linejoin="round" stroke-width="2.409"/>
        <path id="Path_216" data-name="Path 216" d="M352.9,228.422a3.856,3.856,0,0,0-2.631.9l-1.567,1.322a3.363,3.363,0,0,0-.4,4.738l4.627,5.482a.926.926,0,0,0,.8.317C353.255,237.669,353.019,232.478,352.9,228.422Z" fill="none" stroke="#fff" stroke-linecap="round" stroke-linejoin="round" stroke-width="2.409"/>
      </g>
      <path id="Path_217" data-name="Path 217" d="M372.932,232.442a5.553,5.553,0,0,1,2.733-.906,8.725,8.725,0,0,1,2.517.358" fill="none" stroke="#fff" stroke-linecap="round" stroke-linejoin="round" stroke-width="2.409"/>
      <path id="Path_218" data-name="Path 218" d="M368.863,244.623a3.489,3.489,0,0,1,1.222-.2,6.191,6.191,0,0,1,1.924.805,2.752,2.752,0,0,0,1.566.275" fill="none" stroke="#fff" stroke-linecap="round" stroke-linejoin="round" stroke-width="2.409"/>
      <path id="Path_219" data-name="Path 219" d="M367.974,223.675a14.785,14.785,0,0,1,9.366,2.693c4.684,3.252,2.753,5.8,5.563,10.231,3.524,5.555,12.061,4.733,12.061,4.733s-5.691-6.051-5.691-12.123c0-8.507-4.133-13.139-10.908-13.478C370.521,215.339,367.974,223.675,367.974,223.675Z" fill="none" stroke="#fff" stroke-linecap="round" stroke-linejoin="round" stroke-width="2.409"/>
      <path id="Path_220" data-name="Path 220" d="M377.34,226.368a17.279,17.279,0,0,0-9.366-2.693l.066-16.443c-.126,0-.249-.019-.375-.019v46.335c2.351,0,7.976-3.283,11.413-6.925C379.224,237.733,384.811,231.475,377.34,226.368Z" fill="none" stroke="#fff" stroke-linecap="round" stroke-linejoin="round" stroke-width="2.409"/>
      <g id="Group_351" data-name="Group 351">
        <path id="Path_221" data-name="Path 221" d="M378.365,215.731c6.775.339,10.908,4.971,10.908,13.478a13.9,13.9,0,0,0,1.425,5.722c1.933-7.916,2.631-18.261-7.795-25.839-8.133-5.912-14.863-1.879-14.863-1.879l-.066,16.462S370.521,215.339,378.365,215.731Z" fill="none" stroke="#fff" stroke-linecap="round" stroke-linejoin="round" stroke-width="2.409"/>
        <path id="Path_222" data-name="Path 222" d="M388.528,242.527c.149-.543.325-1.136.514-1.763A10.146,10.146,0,0,1,382.9,236.6a13.335,13.335,0,0,1-1.716-4.157c.435,6.129-5.473,13.94.735,24.923,3.963,7.012,10.264,7.012,10.264,7.012S384.259,258.076,388.528,242.527Z" fill="none" stroke="#fff" stroke-linecap="round" stroke-linejoin="round" stroke-width="2.409"/>
        <path id="Path_223" data-name="Path 223" d="M367.974,223.675a17.279,17.279,0,0,1,9.366,2.693A14.785,14.785,0,0,0,367.974,223.675Z" fill="none" stroke="#fff" stroke-linecap="round" stroke-linejoin="round" stroke-width="2.409"/>
      </g>
      <path id="Path_224" data-name="Path 224" d="M380.428,254.221v-.006a19.861,19.861,0,0,1-1.357-7.586c-2.946,3.119-7.488,5.967-10.208,6.719,0,0-.976,5.643,4.365,10.419s12.4,2.947,12.4,2.947S381.068,262.561,380.428,254.221Z" fill="none" stroke="#fff" stroke-linecap="round" stroke-linejoin="round" stroke-width="2.409"/>
    </g>
    <g id="Group_357" data-name="Group 357">
      <circle id="Ellipse_109" data-name="Ellipse 109" cx="0.987" cy="0.987" r="0.987" transform="translate(395.126 252.561)" fill="none" stroke="#fff" stroke-linecap="round" stroke-linejoin="round" stroke-width="2.409"/>
      <circle id="Ellipse_110" data-name="Ellipse 110" cx="0.987" cy="0.987" r="0.987" transform="translate(397.071 200.675)" fill="none" stroke="#fff" stroke-linecap="round" stroke-linejoin="round" stroke-width="2.409"/>
      <circle id="Ellipse_111" data-name="Ellipse 111" cx="0.987" cy="0.987" r="0.987" transform="translate(344.365 240.388)" fill="none" stroke="#fff" stroke-linecap="round" stroke-linejoin="round" stroke-width="2.409"/>
      <g id="Group_353" data-name="Group 353">
        <line id="Line_172" data-name="Line 172" y1="1.931" transform="translate(402.318 215.257)" fill="none" stroke="#fff" stroke-linecap="round" stroke-linejoin="round" stroke-width="2.409"/>
        <line id="Line_173" data-name="Line 173" x2="1.931" transform="translate(404.647 219.517)" fill="none" stroke="#fff" stroke-linecap="round" stroke-linejoin="round" stroke-width="2.409"/>
        <line id="Line_174" data-name="Line 174" y2="1.931" transform="translate(402.318 221.846)" fill="none" stroke="#fff" stroke-linecap="round" stroke-linejoin="round" stroke-width="2.409"/>
        <line id="Line_175" data-name="Line 175" x1="1.931" transform="translate(398.058 219.517)" fill="none" stroke="#fff" stroke-linecap="round" stroke-linejoin="round" stroke-width="2.409"/>
      </g>
      <g id="Group_354" data-name="Group 354">
        <line id="Line_176" data-name="Line 176" y1="1.931" transform="translate(380.428 194.108)" fill="none" stroke="#fff" stroke-linecap="round" stroke-linejoin="round" stroke-width="2.409"/>
        <line id="Line_177" data-name="Line 177" x2="1.931" transform="translate(382.757 198.368)" fill="none" stroke="#fff" stroke-linecap="round" stroke-linejoin="round" stroke-width="2.409"/>
        <line id="Line_178" data-name="Line 178" y2="1.931" transform="translate(380.428 200.697)" fill="none" stroke="#fff" stroke-linecap="round" stroke-linejoin="round" stroke-width="2.409"/>
        <line id="Line_179" data-name="Line 179" x1="1.931" transform="translate(376.168 198.368)" fill="none" stroke="#fff" stroke-linecap="round" stroke-linejoin="round" stroke-width="2.409"/>
      </g>
      <g id="Group_355" data-name="Group 355">
        <circle id="Ellipse_112" data-name="Ellipse 112" cx="4.776" cy="4.776" r="4.776" transform="translate(349.202 253.548)" fill="none" stroke="#fff" stroke-linecap="round" stroke-linejoin="round" stroke-width="2.409"/>
        <line id="Line_180" data-name="Line 180" x1="6.716" y2="6.716" transform="translate(350.62 254.966)" fill="none" stroke="#fff" stroke-linecap="round" stroke-linejoin="round" stroke-width="2.409"/>
      </g>
      <g id="Group_356" data-name="Group 356">
        <circle id="Ellipse_113" data-name="Ellipse 113" cx="3.358" cy="3.358" r="3.358" transform="translate(338.646 216.603)" fill="none" stroke="#fff" stroke-linecap="round" stroke-linejoin="round" stroke-width="2.409"/>
        <line id="Line_181" data-name="Line 181" x1="4.722" y2="4.722" transform="translate(339.644 217.6)" fill="none" stroke="#fff" stroke-linecap="round" stroke-linejoin="round" stroke-width="2.409"/>
      </g>
    </g>
  </g>
</svg>
