<svg xmlns="http://www.w3.org/2000/svg" width="79.529" height="78.349" viewBox="0 0 79.529 78.349">
  <g id="Group_364" data-name="Group 364" transform="translate(-430.291 -191.739)">
    <g id="Group_361" data-name="Group 361">
      <circle id="Ellipse_114" data-name="Ellipse 114" cx="0.806" cy="0.806" r="0.806" transform="translate(486.349 224.449)" fill="none" stroke="#fff" stroke-linecap="round" stroke-linejoin="round" stroke-width="2.409"/>
      <circle id="Ellipse_115" data-name="Ellipse 115" cx="0.806" cy="0.806" r="0.806" transform="translate(431.495 254.446)" fill="none" stroke="#fff" stroke-linecap="round" stroke-linejoin="round" stroke-width="2.409"/>
      <circle id="Ellipse_116" data-name="Ellipse 116" cx="0.806" cy="0.806" r="0.806" transform="translate(496.696 194.784)" fill="none" stroke="#fff" stroke-linecap="round" stroke-linejoin="round" stroke-width="2.409"/>
      <circle id="Ellipse_117" data-name="Ellipse 117" cx="0.806" cy="0.806" r="0.806" transform="translate(499.884 263.839)" fill="none" stroke="#fff" stroke-linecap="round" stroke-linejoin="round" stroke-width="2.409"/>
      <g id="Group_359" data-name="Group 359">
        <line id="Line_182" data-name="Line 182" y1="1.577" transform="translate(501.786 225.255)" fill="none" stroke="#fff" stroke-linecap="round" stroke-linejoin="round" stroke-width="2.409"/>
        <line id="Line_183" data-name="Line 183" x2="1.577" transform="translate(503.688 228.733)" fill="none" stroke="#fff" stroke-linecap="round" stroke-linejoin="round" stroke-width="2.409"/>
        <line id="Line_184" data-name="Line 184" y2="1.577" transform="translate(501.786 230.635)" fill="none" stroke="#fff" stroke-linecap="round" stroke-linejoin="round" stroke-width="2.409"/>
        <line id="Line_185" data-name="Line 185" x1="1.577" transform="translate(498.308 228.733)" fill="none" stroke="#fff" stroke-linecap="round" stroke-linejoin="round" stroke-width="2.409"/>
      </g>
      <g id="Group_360" data-name="Group 360">
        <line id="Line_186" data-name="Line 186" y1="1.577" transform="translate(446.679 255.674)" fill="none" stroke="#fff" stroke-linecap="round" stroke-linejoin="round" stroke-width="2.409"/>
        <line id="Line_187" data-name="Line 187" x2="1.577" transform="translate(448.581 259.153)" fill="none" stroke="#fff" stroke-linecap="round" stroke-linejoin="round" stroke-width="2.409"/>
        <line id="Line_188" data-name="Line 188" y2="1.577" transform="translate(446.679 261.055)" fill="none" stroke="#fff" stroke-linecap="round" stroke-linejoin="round" stroke-width="2.409"/>
        <line id="Line_189" data-name="Line 189" x1="1.577" transform="translate(443.201 259.153)" fill="none" stroke="#fff" stroke-linecap="round" stroke-linejoin="round" stroke-width="2.409"/>
      </g>
    </g>
    <g id="Group_363" data-name="Group 363">
      <path id="Path_225" data-name="Path 225" d="M453.38,234.568a2.156,2.156,0,0,0-1.769-2.328,2.622,2.622,0,0,1-4.483,0,2.156,2.156,0,0,0-1.769,2.328c0,1.936,4.01,4.529,4.01,4.529S453.38,236.5,453.38,234.568Z" fill="none" stroke="#fff" stroke-linecap="round" stroke-linejoin="round" stroke-width="2.409"/>
      <path id="Path_226" data-name="Path 226" d="M490.359,195.31a2.157,2.157,0,0,0-1.769-2.329,2.622,2.622,0,0,1-4.483,0,2.157,2.157,0,0,0-1.769,2.329c0,1.935,4.01,4.528,4.01,4.528S490.359,197.245,490.359,195.31Z" fill="none" stroke="#fff" stroke-linecap="round" stroke-linejoin="round" stroke-width="2.409"/>
      <g id="Group_362" data-name="Group 362">
        <rect id="Rectangle_181" data-name="Rectangle 181" width="14.603" height="26.97" rx="2.111" transform="translate(464.005 217.162)" fill="none" stroke="#fff" stroke-linecap="round" stroke-linejoin="round" stroke-width="2.409"/>
        <circle id="Ellipse_118" data-name="Ellipse 118" cx="0.41" cy="0.41" r="0.41" transform="translate(470.896 240.594)" fill="none" stroke="#fff" stroke-linecap="round" stroke-linejoin="round" stroke-width="2.409"/>
      </g>
      <path id="Path_227" data-name="Path 227" d="M447.712,227.516a23.8,23.8,0,1,1,3.562,15.985" fill="none" stroke="#fff" stroke-linecap="round" stroke-linejoin="round" stroke-width="2.409"/>
      <path id="Path_228" data-name="Path 228" d="M501,237.56a30.485,30.485,0,1,1-56.3-21.792" fill="none" stroke="#fff" stroke-linecap="round" stroke-linejoin="round" stroke-width="2.409"/>
      <path id="Path_229" data-name="Path 229" d="M456.994,203.729a30.5,30.5,0,0,1,43.354,17.638" fill="none" stroke="#fff" stroke-linecap="round" stroke-linejoin="round" stroke-width="2.409"/>
      <path id="Path_230" data-name="Path 230" d="M442.3,254.121a37.325,37.325,0,0,1,36.287-60.071" fill="none" stroke="#fff" stroke-linecap="round" stroke-linejoin="round" stroke-width="2.409"/>
      <path id="Path_231" data-name="Path 231" d="M480.386,266.844a37.443,37.443,0,0,1-27.768-3.9" fill="none" stroke="#fff" stroke-linecap="round" stroke-linejoin="round" stroke-width="2.409"/>
      <path id="Path_232" data-name="Path 232" d="M492.826,200.167a37.314,37.314,0,0,1,2.034,59.416" fill="none" stroke="#fff" stroke-linecap="round" stroke-linejoin="round" stroke-width="2.409"/>
      <path id="Path_233" data-name="Path 233" d="M447.736,206.065h5.585a.89.89,0,0,1,.89.89v3.076a.891.891,0,0,1-.89.89h-4.654l-1.821,1.9v-5.868A.89.89,0,0,1,447.736,206.065Z" fill="none" stroke="#fff" stroke-linecap="round" stroke-linejoin="round" stroke-width="2.409"/>
      <path id="Path_234" data-name="Path 234" d="M485.426,262.125h5.584a.89.89,0,0,1,.89.89v3.076a.889.889,0,0,1-.89.89h-4.654l-1.821,1.9v-5.868A.891.891,0,0,1,485.426,262.125Z" fill="none" stroke="#fff" stroke-linecap="round" stroke-linejoin="round" stroke-width="2.409"/>
    </g>
  </g>
</svg>
